<?xml version="1.0" encoding="UTF-8" standalone="no"?> <svg id="Layer_1" data-name="Layer 1" xmlns="http://www.w3.org/2000/svg" viewBox="0 0 128 128"><defs><style>.cls-1{fill:#2e79bd;}.cls-2{fill:#2d3e50;}</style></defs><title>x</title><path class="cls-1" d="M64,67.43908H39.21911a2.92835,2.92835,0,0,0,0,5.85671H64a2.92835,2.92835,0,1,0,0-5.85671Z"/><path class="cls-1" d="M88.77758,53.00765H39.21911a2.92835,2.92835,0,0,0,0,5.85671H88.77758a2.92835,2.92835,0,1,0,0-5.85671Z"/><path class="cls-2" d="M95.48689,16.65318H80.54551c-.03879-.21816-.07806-.43611-.1254-.65139a16.80563,16.80563,0,0,0-32.84021,0c-.04734.21528-.08661.43322-.1254.65139H32.51311A17.62671,17.62671,0,0,0,14.9058,34.26043v73.35712a17.62671,17.62671,0,0,0,17.6073,17.60725H95.48689a17.62671,17.62671,0,0,0,17.6073-17.60725V34.26043A17.62671,17.62671,0,0,0,95.48689,16.65318Zm-38.24023,2.788a6.75486,6.75486,0,0,1,13.50669,0c.00326.04563.00326.09447.00326.1433a6.6569,6.6569,0,0,1-.19214,1.59921,6.75533,6.75533,0,0,1-13.12566.00326,6.52439,6.52439,0,0,1-.1954-1.60247C57.2434,19.53561,57.2434,19.48677,57.24666,19.44114Zm45.42515,88.17641a7.19469,7.19469,0,0,1-7.18491,7.18491H32.51311a7.19469,7.19469,0,0,1-7.18491-7.18491V47.28837a7.19469,7.19469,0,0,1,7.18491-7.18491H95.48689a7.19469,7.19469,0,0,1,7.18491,7.18491Z"/></svg>